<?xml version="1.0" encoding="utf-8"?>
<!-- Generator: Adobe Illustrator 18.0.0, SVG Export Plug-In . SVG Version: 6.00 Build 0)  -->
<!DOCTYPE svg PUBLIC "-//W3C//DTD SVG 1.1//EN" "http://www.w3.org/Graphics/SVG/1.1/DTD/svg11.dtd">
<svg version="1.1" id="Layer_1" xmlns="http://www.w3.org/2000/svg" xmlns:xlink="http://www.w3.org/1999/xlink" x="0px" y="0px"
	 viewBox="0 0 297.5 337.3" enable-background="new 0 0 297.5 337.3" xml:space="preserve">
<g>
	<polygon fill="#1874B6" points="27.1,303.6 0,0 297.5,0 270.4,303.6 148.5,337.3 	"/>
	<polygon fill="#37A9DA" points="148.7,311.5 247.2,284.2 270.3,24.8 148.7,24.8 	"/>
	<g>
		<polygon fill="#FFFFFF" points="148.7,134.8 198,134.8 201.4,96.7 148.7,96.7 148.7,59.5 148.9,59.5 242.1,59.5 241.2,69.4 
			232.1,172.1 148.7,172.1 		"/>
		<polygon fill="#EBEBEB" points="148.9,231.5 148.8,231.6 107.3,220.4 104.7,190.7 84.5,190.7 67.3,190.7 72.5,249.2 148.8,270.3 
			148.9,270.3 		"/>
		<polygon fill="#FFFFFF" points="194.8,170.5 190.4,220.4 148.8,231.6 148.8,270.3 225.2,249.2 225.7,242.9 232.2,170.5 		"/>
		<polygon fill="#EBEBEB" points="148.9,59.5 148.9,82.6 148.9,96.6 148.9,96.7 59,96.7 59,96.7 58.9,96.7 58.2,88.3 56.5,69.4 
			55.6,59.5 		"/>
		<polygon fill="#EBEBEB" points="148.7,134.8 148.7,158 148.7,172 148.7,172.1 107.9,172.1 107.9,172.1 107.8,172.1 107,163.7 
			105.3,144.8 104.4,134.8 		"/>
	</g>
</g>
</svg>
