<?xml version="1.0" encoding="utf-8"?>
<!-- Generator: Adobe Illustrator 18.0.0, SVG Export Plug-In . SVG Version: 6.00 Build 0)  -->
<!DOCTYPE svg PUBLIC "-//W3C//DTD SVG 1.1//EN" "http://www.w3.org/Graphics/SVG/1.1/DTD/svg11.dtd">
<svg version="1.1" id="Layer_1" xmlns="http://www.w3.org/2000/svg" xmlns:xlink="http://www.w3.org/1999/xlink" x="0px" y="0px"
	 viewBox="0 0 297.5 337.3" enable-background="new 0 0 297.5 337.3" xml:space="preserve">
<g>
	<polygon fill="#E45325" points="27.1,303.6 0,0 297.5,0 270.4,303.6 148.5,337.3 	"/>
	<polygon fill="#F1692D" points="148.7,311.5 247.2,284.2 270.3,24.8 148.7,24.8 	"/>
	<polygon fill="#EBEBEB" points="148.7,137.4 99.4,137.4 96,99.3 148.7,99.3 148.7,62.1 148.6,62.1 55.3,62.1 56.2,72.1 65.4,174.7 
		148.7,174.7 	"/>
	<polygon fill="#EBEBEB" points="148.7,234.1 148.6,234.2 107.1,223 104.4,193.3 84.3,193.3 67.1,193.3 72.3,251.8 148.6,272.9 
		148.7,272.9 	"/>
	<polygon fill="#FFFFFF" points="148.6,137.4 148.6,174.7 194.4,174.7 190.1,223 148.6,234.2 148.6,272.9 224.9,251.8 225.5,245.5 
		234.2,147.4 235.2,137.4 225.1,137.4 	"/>
	<polygon fill="#FFFFFF" points="148.6,62.1 148.6,85.2 148.6,99.2 148.6,99.3 238.4,99.3 238.4,99.3 238.5,99.3 239.3,90.9 
		241,72.1 241.9,62.1 	"/>
</g>
</svg>
