<?xml version="1.0" encoding="utf-8"?>
<!-- Generator: Adobe Illustrator 18.0.0, SVG Export Plug-In . SVG Version: 6.00 Build 0)  -->
<!DOCTYPE svg PUBLIC "-//W3C//DTD SVG 1.1//EN" "http://www.w3.org/Graphics/SVG/1.1/DTD/svg11.dtd">
<svg version="1.1" id="Layer_1" xmlns="http://www.w3.org/2000/svg" xmlns:xlink="http://www.w3.org/1999/xlink" x="0px" y="0px"
	 viewBox="0 0 297.4 337.3" enable-background="new 0 0 297.4 337.3" xml:space="preserve">
<g>
	<polygon fill="#E4A229" points="27.1,303.6 0,0 297.4,0 270.4,303.6 148.5,337.3 	"/>
	<polygon fill="#EFBF23" points="148.5,311.2 246.9,283.9 270.1,24.5 148.5,24.5 	"/>
	<polygon fill="#EBEBEB" points="148.4,233.8 148.3,233.8 106.8,222.6 104.1,192.9 84,192.9 66.8,192.9 72,251.4 148.2,272.6 
		148.4,272.5 	"/>
	<polygon fill="#EBEBEB" points="153.4,174.3 153.4,137.1 107.6,137.1 113,78.6 153.5,77.5 153.4,38.8 79.3,38.8 76.5,66.3 
		67.8,164.3 66.9,174.3 76.9,174.3 	"/>
	<polygon fill="#FFFFFF" points="153.2,77.6 153.3,77.6 194,80 197.5,118.4 217.6,118.4 234.8,118.4 228.3,46.5 153.4,38.8 
		153.2,38.9 	"/>
	<polyline fill="#FFFFFF" points="231,77.7 227.8,38.8 149.2,38.8 149.2,63 149.2,77.6 149.2,77.7 231,77.7 	"/>
	<polygon fill="#FFFFFF" points="148.3,137.1 148.3,174.3 194.1,174.3 189.8,222.6 148.3,233.8 148.3,272.6 224.6,251.4 
		225.2,245.1 233.9,147.1 234.8,137.1 224.8,137.1 	"/>
	<path fill="#FFFFFF" d="M226.2,76.1"/>
</g>
</svg>
