<?xml version="1.0" encoding="utf-8"?>
<!-- Generator: Adobe Illustrator 18.0.0, SVG Export Plug-In . SVG Version: 6.00 Build 0)  -->
<!DOCTYPE svg PUBLIC "-//W3C//DTD SVG 1.1//EN" "http://www.w3.org/Graphics/SVG/1.1/DTD/svg11.dtd">
<svg version="1.1" id="Layer_1" xmlns="http://www.w3.org/2000/svg" xmlns:xlink="http://www.w3.org/1999/xlink" x="0px" y="0px"
	 viewBox="0 0 100 100" enable-background="new 0 0 100 100" xml:space="preserve">
<g>
	<polygon fill="#31DB61" points="13.9,90 5.9,0 94.1,0 86.1,90 49.9,100 	"/>
	<polygon fill="#24ED75" points="49.9,92.3 79.1,84.2 86,7.3 49.9,7.3 	"/>
	<polygon fill="#EBEBEB" points="49.9,69.3 49.9,69.3 37.6,66 36.8,57.2 30.8,57.2 25.7,57.2 27.3,74.5 49.9,80.8 49.9,80.8 	"/>
	<polygon fill="#FFFFFF" points="64,40.6 64,40.6 63.5,51.7 62.2,66 49.9,69.3 49.9,80.8 72.5,74.5 72.7,72.7 75.3,43.6 75.5,40.6 
		72.6,40.6 	"/>
	<path fill="#FFFFFF" d="M73,22.6"/>
</g>
<polygon fill="#FFFFFF" points="29.7,25.7 50.8,22.6 63.3,25.7 64,40.6 70.3,40.6 75.5,41.4 73.2,13.9 51.3,11.5 31.7,14 "/>
</svg>
